# xmcd
#
# Track frame offsets: 
#        150
#        15677
#        41177
#        60014
#        77444
#        97246
#        115124
#        133064
#        156685
#        176125
#        193998
#        218743
#        231456
#        252943
#        275068
#        296146
#        323222
#        342786
#
# Disc length: 4790 seconds
#
# Revision: 2
# Processed by: cddbd v1.5.2PL0 Copyright (c) Steve Scherf et al.
# Submitted via: ExactAudioCopy v1.3
#
DISCID=1912b412
DTITLE=Various Artist - Akella Presents - vol.39 - Rockin' Blues  CD2
DYEAR=2014
DGENRE=Rockin' Blues
TTITLE0=Tony Spinner - State Line
TTITLE1=Hedford Slim Band - Treat Her Righ
TTITLE2=Slide Brothers - Sunday School Blues
TTITLE3=Don Nix - Goin' Down The Road To Memphis
TTITLE4=Tommy Shrieve Band - Shame On You
TTITLE5=Stevie Cochran - The Bad Road
TTITLE6=Zed Head - Voodoo Love
TTITLE7=Paul Felton - Setting Me Up
TTITLE8=Shipp - Bring It On
TTITLE9=Mojo Monkeys - Mojo Man
TTITLE10=Jim Gustin And Truth Jones - You Answer Me
TTITLE11=Darcy Perry - King Hit
TTITLE12=Wild T. And The Spirit - I'm A River
TTITLE13=Sy Klopps Blues Band - Good Morning Little School
TTITLE14=The Groove Junkies - Life on the Hardline
TTITLE15=John Campbelljohn - Guilt Trip
TTITLE16=Paul Thorn - I Don't Like Half The Folks I Love
TTITLE17=Louie Blue - Stay With Me
EXTD=
EXTT0=
EXTT1=
EXTT2=
EXTT3=
EXTT4=
EXTT5=
EXTT6=
EXTT7=
EXTT8=
EXTT9=
EXTT10=
EXTT11=
EXTT12=
EXTT13=
EXTT14=
EXTT15=
EXTT16=
EXTT17=
PLAYORDER=
